<?xml version="1.0" encoding="UTF-8" standalone="no"?>
<!DOCTYPE svg PUBLIC "-//W3C//DTD SVG 1.1//EN"
 "http://www.w3.org/Graphics/SVG/1.1/DTD/svg11.dtd">
<!-- Generated by graphviz version 2.36.0 (20140111.2315)
 -->
<!-- Title: Program Dependency Graph for &#39;main&#39; function Pages: 1 -->
<svg width="2706pt" height="1093pt"
 viewBox="0.00 0.00 2706.00 1093.00" xmlns="http://www.w3.org/2000/svg" xmlns:xlink="http://www.w3.org/1999/xlink">
<g id="graph0" class="graph" transform="scale(1 1) rotate(0) translate(4 1089)">
<title>Program Dependency Graph for &#39;main&#39; function</title>
<polygon fill="white" stroke="none" points="-4,4 -4,-1089 2702,-1089 2702,4 -4,4"/>
<text text-anchor="middle" x="1349" y="-7.8" font-family="Times,serif" font-size="14.00">Program Dependency Graph for &#39;main&#39; function</text>
<!-- Node0x264a970 -->
<g id="node1" class="node"><title>Node0x264a970</title>
<polygon fill="none" stroke="black" points="0,-1048 0,-1084 116,-1084 116,-1048 0,-1048"/>
<text text-anchor="middle" x="58" y="-1062.3" font-family="Times,serif" font-size="14.00">&lt;&lt;ENTRY&gt;&gt; foo</text>
</g>
<!-- Node0x264aa00 -->
<g id="node2" class="node"><title>Node0x264aa00</title>
<polygon fill="none" stroke="black" points="27,-972 27,-1008 89,-1008 89,-972 27,-972"/>
<text text-anchor="middle" x="58" y="-986.3" font-family="Times,serif" font-size="14.00">ret i32 1</text>
</g>
<!-- Node0x264a970&#45;&gt;Node0x264aa00 -->
<g id="edge1" class="edge"><title>Node0x264a970&#45;&gt;Node0x264aa00</title>
<path fill="none" stroke="black" d="M58,-1047.84C58,-1039.06 58,-1028.16 58,-1018.27"/>
<polygon fill="black" stroke="black" points="61.5001,-1018.07 58,-1008.07 54.5001,-1018.07 61.5001,-1018.07"/>
</g>
<!-- Node0x264afb0 -->
<g id="node3" class="node"><title>Node0x264afb0</title>
<polygon fill="none" stroke="black" points="134.5,-1048 134.5,-1084 253.5,-1084 253.5,-1048 134.5,-1048"/>
<text text-anchor="middle" x="194" y="-1062.3" font-family="Times,serif" font-size="14.00">&lt;&lt;ENTRY&gt;&gt; goo</text>
</g>
<!-- Node0x264b050 -->
<g id="node4" class="node"><title>Node0x264b050</title>
<polygon fill="none" stroke="black" points="163,-972 163,-1008 225,-1008 225,-972 163,-972"/>
<text text-anchor="middle" x="194" y="-986.3" font-family="Times,serif" font-size="14.00">ret i32 2</text>
</g>
<!-- Node0x264afb0&#45;&gt;Node0x264b050 -->
<g id="edge2" class="edge"><title>Node0x264afb0&#45;&gt;Node0x264b050</title>
<path fill="none" stroke="black" d="M194,-1047.84C194,-1039.06 194,-1028.16 194,-1018.27"/>
<polygon fill="black" stroke="black" points="197.5,-1018.07 194,-1008.07 190.5,-1018.07 197.5,-1018.07"/>
</g>
<!-- Node0x264c170 -->
<g id="node5" class="node"><title>Node0x264c170</title>
<polygon fill="none" stroke="black" points="1014,-806 1014,-842 1190,-842 1190,-806 1014,-806"/>
<text text-anchor="middle" x="1102" y="-820.3" font-family="Times,serif" font-size="14.00">%a.addr = alloca i32, align 4</text>
</g>
<!-- Node0x264b020 -->
<g id="node6" class="node"><title>Node0x264b020</title>
<polygon fill="none" stroke="black" points="1074,-716 1074,-752 1286,-752 1286,-716 1074,-716"/>
<text text-anchor="middle" x="1180" y="-730.3" font-family="Times,serif" font-size="14.00">store i32 %a, i32* %a.addr, align 4</text>
</g>
<!-- Node0x264c170&#45;&gt;Node0x264b020 -->
<g id="edge3" class="edge"><title>Node0x264c170&#45;&gt;Node0x264b020</title>
<path fill="none" stroke="black" stroke-dasharray="1,5" d="M1109.63,-805.947C1114.95,-795.208 1122.74,-781.451 1132,-771 1135.9,-766.606 1140.4,-762.401 1145.06,-758.515"/>
<polygon fill="black" stroke="black" points="1147.27,-761.231 1152.97,-752.3 1142.95,-755.727 1147.27,-761.231"/>
<text text-anchor="middle" x="1168" y="-775.3" font-family="Times,serif" font-size="14.00">{DEF_USE}</text>
</g>
<!-- Node0x26512f0 -->
<g id="node7" class="node"><title>Node0x26512f0</title>
<polygon fill="none" stroke="black" points="1177.5,-626 1177.5,-662 1306.5,-662 1306.5,-626 1177.5,-626"/>
<text text-anchor="middle" x="1242" y="-640.3" font-family="Times,serif" font-size="14.00">FORMAL_OUT:i32</text>
</g>
<!-- Node0x264b020&#45;&gt;Node0x26512f0 -->
<g id="edge4" class="edge"><title>Node0x264b020&#45;&gt;Node0x26512f0</title>
<path fill="none" stroke="black" stroke-dasharray="1,5" d="M1192.25,-715.614C1201.31,-702.755 1213.79,-685.038 1223.99,-670.568"/>
<polygon fill="black" stroke="black" points="1227.09,-672.241 1229.99,-662.05 1221.37,-668.209 1227.09,-672.241"/>
</g>
<!-- Node0x26511f0 -->
<g id="node33" class="node"><title>Node0x26511f0</title>
<polygon fill="none" stroke="black" points="1272.5,-550 1272.5,-586 1399.5,-586 1399.5,-550 1272.5,-550"/>
<text text-anchor="middle" x="1336" y="-564.3" font-family="Times,serif" font-size="14.00">ACTUAL_OUT:i32</text>
</g>
<!-- Node0x26512f0&#45;&gt;Node0x26511f0 -->
<g id="edge46" class="edge"><title>Node0x26512f0&#45;&gt;Node0x26511f0</title>
<path fill="none" stroke="black" stroke-dasharray="5,2" d="M1263.8,-625.837C1276.38,-615.937 1292.37,-603.346 1306.11,-592.533"/>
<polygon fill="black" stroke="black" points="1308.62,-595.006 1314.32,-586.07 1304.29,-589.506 1308.62,-595.006"/>
</g>
<!-- Node0x264c220 -->
<g id="node8" class="node"><title>Node0x264c220</title>
<polygon fill="none" stroke="black" points="697.5,-806 697.5,-842 882.5,-842 882.5,-806 697.5,-806"/>
<text text-anchor="middle" x="790" y="-820.3" font-family="Times,serif" font-size="14.00">%b.addr = alloca float, align 4</text>
</g>
<!-- Node0x264c290 -->
<g id="node9" class="node"><title>Node0x264c290</title>
<polygon fill="none" stroke="black" points="659,-716 659,-752 887,-752 887,-716 659,-716"/>
<text text-anchor="middle" x="773" y="-730.3" font-family="Times,serif" font-size="14.00">store float %b, float* %b.addr, align 4</text>
</g>
<!-- Node0x264c220&#45;&gt;Node0x264c290 -->
<g id="edge5" class="edge"><title>Node0x264c220&#45;&gt;Node0x264c290</title>
<path fill="none" stroke="black" stroke-dasharray="1,5" d="M786.641,-805.614C784.251,-793.24 780.992,-776.369 778.258,-762.22"/>
<polygon fill="black" stroke="black" points="781.627,-761.205 776.294,-752.05 774.754,-762.533 781.627,-761.205"/>
<text text-anchor="middle" x="820" y="-775.3" font-family="Times,serif" font-size="14.00">{DEF_USE}</text>
</g>
<!-- Node0x26516e0 -->
<g id="node10" class="node"><title>Node0x26516e0</title>
<polygon fill="none" stroke="black" points="635.5,-626 635.5,-662 772.5,-662 772.5,-626 635.5,-626"/>
<text text-anchor="middle" x="704" y="-640.3" font-family="Times,serif" font-size="14.00">FORMAL_OUT:float</text>
</g>
<!-- Node0x264c290&#45;&gt;Node0x26516e0 -->
<g id="edge6" class="edge"><title>Node0x264c290&#45;&gt;Node0x26516e0</title>
<path fill="none" stroke="black" stroke-dasharray="1,5" d="M759.368,-715.614C749.19,-702.634 735.131,-684.704 723.727,-670.16"/>
<polygon fill="black" stroke="black" points="726.294,-667.76 717.369,-662.05 720.785,-672.079 726.294,-667.76"/>
</g>
<!-- Node0x2651460 -->
<g id="node35" class="node"><title>Node0x2651460</title>
<polygon fill="none" stroke="black" points="448,-550 448,-586 582,-586 582,-550 448,-550"/>
<text text-anchor="middle" x="515" y="-564.3" font-family="Times,serif" font-size="14.00">ACTUAL_OUT:float</text>
</g>
<!-- Node0x26516e0&#45;&gt;Node0x2651460 -->
<g id="edge50" class="edge"><title>Node0x26516e0&#45;&gt;Node0x2651460</title>
<path fill="none" stroke="black" stroke-dasharray="5,2" d="M660.165,-625.837C632.732,-615.096 597.213,-601.189 568.176,-589.82"/>
<polygon fill="black" stroke="black" points="569.186,-586.457 558.598,-586.07 566.633,-592.975 569.186,-586.457"/>
</g>
<!-- Node0x264c300 -->
<g id="node11" class="node"><title>Node0x264c300</title>
<polygon fill="none" stroke="black" points="889.5,-882 889.5,-918 1006.5,-918 1006.5,-882 889.5,-882"/>
<text text-anchor="middle" x="948" y="-896.3" font-family="Times,serif" font-size="14.00">&lt;&lt;ENTRY&gt;&gt; test</text>
</g>
<!-- Node0x264c300&#45;&gt;Node0x264c170 -->
<g id="edge7" class="edge"><title>Node0x264c300&#45;&gt;Node0x264c170</title>
<path fill="none" stroke="black" d="M983.718,-881.837C1005.68,-871.283 1034.01,-857.672 1057.43,-846.416"/>
<polygon fill="black" stroke="black" points="1058.98,-849.556 1066.48,-842.07 1055.95,-843.246 1058.98,-849.556"/>
</g>
<!-- Node0x264c300&#45;&gt;Node0x264b020 -->
<g id="edge9" class="edge"><title>Node0x264c300&#45;&gt;Node0x264b020</title>
<path fill="none" stroke="black" d="M1006.62,-893.677C1072.34,-886.419 1173.01,-871.001 1198,-843 1219.38,-819.041 1213.31,-801.733 1204,-771 1202.97,-767.59 1201.49,-764.207 1199.78,-760.959"/>
<polygon fill="black" stroke="black" points="1202.66,-758.964 1194.46,-752.25 1196.68,-762.61 1202.66,-758.964"/>
</g>
<!-- Node0x264c300&#45;&gt;Node0x26512f0 -->
<g id="edge13" class="edge"><title>Node0x264c300&#45;&gt;Node0x26512f0</title>
<path fill="none" stroke="black" stroke-dasharray="5,2" d="M954.427,-881.928C968.787,-845.992 1006.85,-761.994 1065,-715 1094.71,-690.991 1133.67,-674.392 1167.48,-663.407"/>
<polygon fill="black" stroke="black" points="1168.83,-666.65 1177.33,-660.316 1166.74,-659.971 1168.83,-666.65"/>
</g>
<!-- Node0x264c300&#45;&gt;Node0x264c220 -->
<g id="edge8" class="edge"><title>Node0x264c300&#45;&gt;Node0x264c220</title>
<path fill="none" stroke="black" d="M911.354,-881.837C888.82,-871.283 859.759,-857.672 835.725,-846.416"/>
<polygon fill="black" stroke="black" points="836.987,-843.142 826.447,-842.07 834.018,-849.481 836.987,-843.142"/>
</g>
<!-- Node0x264c300&#45;&gt;Node0x264c290 -->
<g id="edge10" class="edge"><title>Node0x264c300&#45;&gt;Node0x264c290</title>
<path fill="none" stroke="black" d="M941.069,-881.986C928.908,-854.328 901.057,-799.814 860,-771 852.155,-765.494 843.34,-760.622 834.41,-756.382"/>
<polygon fill="black" stroke="black" points="835.655,-753.104 825.099,-752.192 832.782,-759.488 835.655,-753.104"/>
</g>
<!-- Node0x264c300&#45;&gt;Node0x26516e0 -->
<g id="edge15" class="edge"><title>Node0x264c300&#45;&gt;Node0x26516e0</title>
<path fill="none" stroke="black" stroke-dasharray="5,2" d="M948.138,-881.765C947.479,-845.886 940.878,-762.566 896,-715 866.372,-683.597 821.528,-666.231 782.629,-656.654"/>
<polygon fill="black" stroke="black" points="783.413,-653.243 772.88,-654.383 781.825,-660.061 783.413,-653.243"/>
</g>
<!-- Node0x264c420 -->
<g id="node12" class="node"><title>Node0x264c420</title>
<polygon fill="none" stroke="black" points="537,-806 537,-842 679,-842 679,-806 537,-806"/>
<text text-anchor="middle" x="608" y="-820.3" font-family="Times,serif" font-size="14.00">ret float 3.000000e+00</text>
</g>
<!-- Node0x264c300&#45;&gt;Node0x264c420 -->
<g id="edge11" class="edge"><title>Node0x264c300&#45;&gt;Node0x264c420</title>
<path fill="none" stroke="black" d="M889.366,-886.532C838.913,-875.766 763.892,-859.672 689.155,-843.245"/>
<polygon fill="black" stroke="black" points="689.611,-839.762 679.092,-841.031 688.107,-846.599 689.611,-839.762"/>
</g>
<!-- Node0x26511c0 -->
<g id="node13" class="node"><title>Node0x26511c0</title>
<polygon fill="none" stroke="black" points="1246,-806 1246,-842 1362,-842 1362,-806 1246,-806"/>
<text text-anchor="middle" x="1304" y="-820.3" font-family="Times,serif" font-size="14.00">FORMAL_IN:i32</text>
</g>
<!-- Node0x264c300&#45;&gt;Node0x26511c0 -->
<g id="edge12" class="edge"><title>Node0x264c300&#45;&gt;Node0x26511c0</title>
<path fill="none" stroke="black" stroke-dasharray="5,2" d="M1006.82,-891.81C1088.43,-881.797 1226.67,-864.684 1232,-863 1244.32,-859.11 1257.02,-853.153 1268.26,-847.102"/>
<polygon fill="black" stroke="black" points="1270.3,-849.973 1277.32,-842.039 1266.88,-843.863 1270.3,-849.973"/>
</g>
<!-- Node0x2650020 -->
<g id="node14" class="node"><title>Node0x2650020</title>
<polygon fill="none" stroke="black" points="395.5,-806 395.5,-842 518.5,-842 518.5,-806 395.5,-806"/>
<text text-anchor="middle" x="457" y="-820.3" font-family="Times,serif" font-size="14.00">FORMAL_IN:float</text>
</g>
<!-- Node0x264c300&#45;&gt;Node0x2650020 -->
<g id="edge14" class="edge"><title>Node0x264c300&#45;&gt;Node0x2650020</title>
<path fill="none" stroke="black" stroke-dasharray="5,2" d="M889.221,-893.333C809.677,-885.184 663.223,-868.485 528.92,-843.057"/>
<polygon fill="black" stroke="black" points="529.341,-839.574 518.861,-841.132 528.025,-846.45 529.341,-839.574"/>
</g>
<!-- Node0x26510c0 -->
<g id="node15" class="node"><title>Node0x26510c0</title>
<polygon fill="none" stroke="black" points="772,-972 772,-1008 1124,-1008 1124,-972 772,-972"/>
<text text-anchor="middle" x="948" y="-986.3" font-family="Times,serif" font-size="14.00">%call3 = call float @test(i32 2, float 0x40091EB860000000)</text>
</g>
<!-- Node0x264c420&#45;&gt;Node0x26510c0 -->
<g id="edge16" class="edge"><title>Node0x264c420&#45;&gt;Node0x26510c0</title>
<path fill="none" stroke="black" stroke-dasharray="1,5" d="M643.344,-842.048C705.665,-872.109 834.954,-934.472 903.344,-967.46"/>
<polygon fill="black" stroke="black" points="902.049,-970.721 912.576,-971.913 905.09,-964.416 902.049,-970.721"/>
</g>
<!-- Node0x26511c0&#45;&gt;Node0x264b020 -->
<g id="edge45" class="edge"><title>Node0x26511c0&#45;&gt;Node0x264b020</title>
<path fill="none" stroke="black" stroke-dasharray="1,5" d="M1280.41,-805.784C1266.4,-795.599 1248.24,-782.484 1232,-771 1225.96,-766.729 1219.5,-762.212 1213.25,-757.875"/>
<polygon fill="black" stroke="black" points="1215.15,-754.929 1204.93,-752.112 1211.16,-760.684 1215.15,-754.929"/>
</g>
<!-- Node0x26511c0&#45;&gt;Node0x26512f0 -->
<g id="edge44" class="edge"><title>Node0x26511c0&#45;&gt;Node0x26512f0</title>
<path fill="none" stroke="black" stroke-dasharray="5,2" d="M1305.2,-805.897C1306.12,-784.049 1305.65,-745.423 1294,-715 1287.65,-698.415 1276.2,-682.332 1265.66,-669.772"/>
<polygon fill="black" stroke="black" points="1268.14,-667.29 1258.93,-662.058 1262.87,-671.893 1268.14,-667.29"/>
</g>
<!-- Node0x2650020&#45;&gt;Node0x264c290 -->
<g id="edge49" class="edge"><title>Node0x2650020&#45;&gt;Node0x264c290</title>
<path fill="none" stroke="black" stroke-dasharray="1,5" d="M518.303,-805.928C570.96,-791.264 646.9,-770.117 702.149,-754.731"/>
<polygon fill="black" stroke="black" points="703.173,-758.079 711.868,-752.024 701.296,-751.335 703.173,-758.079"/>
</g>
<!-- Node0x2650020&#45;&gt;Node0x26516e0 -->
<g id="edge48" class="edge"><title>Node0x2650020&#45;&gt;Node0x26516e0</title>
<path fill="none" stroke="black" stroke-dasharray="5,2" d="M480.683,-805.933C525.313,-773.77 621.888,-704.174 672.149,-667.953"/>
<polygon fill="black" stroke="black" points="674.322,-670.702 680.388,-662.016 670.229,-665.023 674.322,-670.702"/>
</g>
<!-- Node0x26510c0&#45;&gt;Node0x264c300 -->
<g id="edge37" class="edge"><title>Node0x26510c0&#45;&gt;Node0x264c300</title>
<path fill="none" stroke="black" d="M948,-971.614C948,-959.24 948,-942.369 948,-928.22"/>
<polygon fill="black" stroke="black" points="951.5,-928.05 948,-918.05 944.5,-928.05 951.5,-928.05"/>
</g>
<!-- Node0x2651150 -->
<g id="node32" class="node"><title>Node0x2651150</title>
<polygon fill="none" stroke="black" points="1107.5,-882 1107.5,-918 1220.5,-918 1220.5,-882 1107.5,-882"/>
<text text-anchor="middle" x="1164" y="-896.3" font-family="Times,serif" font-size="14.00">ACTUAL_IN:i32</text>
</g>
<!-- Node0x26510c0&#45;&gt;Node0x2651150 -->
<g id="edge38" class="edge"><title>Node0x26510c0&#45;&gt;Node0x2651150</title>
<path fill="none" stroke="black" stroke-dasharray="5,2" d="M989.903,-971.928C1024.93,-957.659 1075.02,-937.25 1112.49,-921.985"/>
<polygon fill="black" stroke="black" points="1114.27,-925.038 1122.21,-918.024 1111.63,-918.556 1114.27,-925.038"/>
</g>
<!-- Node0x26510c0&#45;&gt;Node0x26511f0 -->
<g id="edge39" class="edge"><title>Node0x26510c0&#45;&gt;Node0x26511f0</title>
<path fill="none" stroke="black" stroke-dasharray="5,2" d="M1124.28,-974.775C1247.46,-954.045 1390,-903.398 1390,-780 1390,-780 1390,-780 1390,-643 1390,-623.988 1378.23,-606.597 1365.67,-593.457"/>
<polygon fill="black" stroke="black" points="1367.88,-590.715 1358.28,-586.232 1362.98,-595.723 1367.88,-590.715"/>
</g>
<!-- Node0x26513f0 -->
<g id="node34" class="node"><title>Node0x26513f0</title>
<polygon fill="none" stroke="black" points="517.5,-882 517.5,-918 638.5,-918 638.5,-882 517.5,-882"/>
<text text-anchor="middle" x="578" y="-896.3" font-family="Times,serif" font-size="14.00">ACTUAL_IN:float</text>
</g>
<!-- Node0x26510c0&#45;&gt;Node0x26513f0 -->
<g id="edge40" class="edge"><title>Node0x26510c0&#45;&gt;Node0x26513f0</title>
<path fill="none" stroke="black" stroke-dasharray="5,2" d="M789.285,-971.987C759.661,-967.09 729.173,-960.869 701,-953 673.622,-945.354 644.255,-933.104 621.084,-922.414"/>
<polygon fill="black" stroke="black" points="622.421,-919.175 611.881,-918.1 619.451,-925.514 622.421,-919.175"/>
</g>
<!-- Node0x26510c0&#45;&gt;Node0x2651460 -->
<g id="edge41" class="edge"><title>Node0x26510c0&#45;&gt;Node0x2651460</title>
<path fill="none" stroke="black" stroke-dasharray="5,2" d="M771.709,-978.916C600.741,-966.695 367,-942.413 367,-901 367,-901 367,-901 367,-643 367,-607.288 401.899,-588.81 437.803,-579.249"/>
<polygon fill="black" stroke="black" points="439.041,-582.55 447.928,-576.782 437.384,-575.749 439.041,-582.55"/>
</g>
<!-- Node0x264fa90 -->
<g id="node16" class="node"><title>Node0x264fa90</title>
<polygon fill="none" stroke="black" points="1742.5,-972 1742.5,-1008 1915.5,-1008 1915.5,-972 1742.5,-972"/>
<text text-anchor="middle" x="1829" y="-986.3" font-family="Times,serif" font-size="14.00">%retval = alloca i32, align 4</text>
</g>
<!-- Node0x264fcc0 -->
<g id="node17" class="node"><title>Node0x264fcc0</title>
<polygon fill="none" stroke="black" points="1717,-882 1717,-918 1869,-918 1869,-882 1717,-882"/>
<text text-anchor="middle" x="1793" y="-896.3" font-family="Times,serif" font-size="14.00">store i32 0, i32* %retval</text>
</g>
<!-- Node0x264fa90&#45;&gt;Node0x264fcc0 -->
<g id="edge17" class="edge"><title>Node0x264fa90&#45;&gt;Node0x264fcc0</title>
<path fill="none" stroke="black" stroke-dasharray="1,5" d="M1821.89,-971.614C1816.73,-958.998 1809.65,-941.705 1803.8,-927.391"/>
<polygon fill="black" stroke="black" points="1807,-925.981 1799.98,-918.05 1800.52,-928.631 1807,-925.981"/>
<text text-anchor="middle" x="1850" y="-941.3" font-family="Times,serif" font-size="14.00">{DEF_USE}</text>
</g>
<!-- Node0x264fd30 -->
<g id="node18" class="node"><title>Node0x264fd30</title>
<polygon fill="none" stroke="black" points="1461.5,-972 1461.5,-1008 1610.5,-1008 1610.5,-972 1461.5,-972"/>
<text text-anchor="middle" x="1536" y="-986.3" font-family="Times,serif" font-size="14.00">%x = alloca i32, align 4</text>
</g>
<!-- Node0x264fda0 -->
<g id="node19" class="node"><title>Node0x264fda0</title>
<polygon fill="none" stroke="black" points="1398.5,-882 1398.5,-918 1571.5,-918 1571.5,-882 1398.5,-882"/>
<text text-anchor="middle" x="1485" y="-896.3" font-family="Times,serif" font-size="14.00">store i32 0, i32* %x, align 4</text>
</g>
<!-- Node0x264fd30&#45;&gt;Node0x264fda0 -->
<g id="edge18" class="edge"><title>Node0x264fd30&#45;&gt;Node0x264fda0</title>
<path fill="none" stroke="black" stroke-dasharray="1,5" d="M1525.34,-971.871C1521.69,-965.927 1517.62,-959.198 1514,-953 1509.15,-944.699 1504,-935.567 1499.4,-927.302"/>
<polygon fill="black" stroke="black" points="1502.4,-925.488 1494.5,-918.431 1496.27,-928.876 1502.4,-925.488"/>
<text text-anchor="middle" x="1550" y="-941.3" font-family="Times,serif" font-size="14.00">{DEF_USE}</text>
</g>
<!-- Node0x264fe10 -->
<g id="node20" class="node"><title>Node0x264fe10</title>
<polygon fill="none" stroke="black" points="1343,-474 1343,-510 1513,-510 1513,-474 1343,-474"/>
<text text-anchor="middle" x="1428" y="-488.3" font-family="Times,serif" font-size="14.00">%0 = load i32* %x, align 4</text>
</g>
<!-- Node0x264fd30&#45;&gt;Node0x264fe10 -->
<g id="edge19" class="edge"><title>Node0x264fd30&#45;&gt;Node0x264fe10</title>
<path fill="none" stroke="black" stroke-dasharray="1,5" d="M1569.13,-971.955C1575.91,-966.828 1582.15,-960.521 1586,-953 1589.24,-946.671 1586.38,-944.101 1586,-937 1584.66,-912.004 1584.03,-905.705 1580,-881 1566.02,-795.215 1538,-776.917 1538,-690 1538,-690 1538,-690 1538,-567 1538,-542.725 1519.33,-525.892 1497.37,-514.488"/>
<polygon fill="black" stroke="black" points="1498.68,-511.235 1488.15,-510.079 1495.66,-517.55 1498.68,-511.235"/>
<text text-anchor="middle" x="1580" y="-730.3" font-family="Times,serif" font-size="14.00">{DEF_USE}</text>
</g>
<!-- Node0x264fda0&#45;&gt;Node0x264fe10 -->
<g id="edge20" class="edge"><title>Node0x264fda0&#45;&gt;Node0x264fe10</title>
<path fill="none" stroke="black" stroke-dasharray="1,5" d="M1478.03,-881.973C1472.61,-867.175 1466,-845.029 1466,-825 1466,-825 1466,-825 1466,-567 1466,-549.585 1457.57,-532.157 1448.65,-518.593"/>
<polygon fill="black" stroke="black" points="1451.42,-516.443 1442.8,-510.276 1445.69,-520.469 1451.42,-516.443"/>
<text text-anchor="middle" x="1494.5" y="-685.3" font-family="Times,serif" font-size="14.00">{RAW} x</text>
</g>
<!-- Node0x2650180 -->
<g id="node21" class="node"><title>Node0x2650180</title>
<polygon fill="none" stroke="black" points="1235.5,-384 1235.5,-420 1416.5,-420 1416.5,-384 1235.5,-384"/>
<text text-anchor="middle" x="1326" y="-398.3" font-family="Times,serif" font-size="14.00">%tobool = icmp ne i32 %0, 0</text>
</g>
<!-- Node0x264fe10&#45;&gt;Node0x2650180 -->
<g id="edge21" class="edge"><title>Node0x264fe10&#45;&gt;Node0x2650180</title>
<path fill="none" stroke="black" stroke-dasharray="1,5" d="M1407.85,-473.614C1392.38,-460.27 1370.85,-441.694 1353.75,-426.944"/>
<polygon fill="black" stroke="black" points="1355.62,-423.933 1345.76,-420.05 1351.05,-429.233 1355.62,-423.933"/>
<text text-anchor="middle" x="1422" y="-443.3" font-family="Times,serif" font-size="14.00">{DEF_USE}</text>
</g>
<!-- Node0x26501f0 -->
<g id="node29" class="node"><title>Node0x26501f0</title>
<polygon fill="none" stroke="black" points="1196,-294 1196,-330 1456,-330 1456,-294 1196,-294"/>
<text text-anchor="middle" x="1326" y="-308.3" font-family="Times,serif" font-size="14.00">br i1 %tobool, label %if.then, label %if.else</text>
</g>
<!-- Node0x2650180&#45;&gt;Node0x26501f0 -->
<g id="edge32" class="edge"><title>Node0x2650180&#45;&gt;Node0x26501f0</title>
<path fill="none" stroke="black" stroke-dasharray="1,5" d="M1326,-383.614C1326,-371.24 1326,-354.369 1326,-340.22"/>
<polygon fill="black" stroke="black" points="1329.5,-340.05 1326,-330.05 1322.5,-340.05 1329.5,-340.05"/>
<text text-anchor="middle" x="1362" y="-353.3" font-family="Times,serif" font-size="14.00">{DEF_USE}</text>
</g>
<!-- Node0x264feb0 -->
<g id="node22" class="node"><title>Node0x264feb0</title>
<polygon fill="none" stroke="black" points="1591.5,-294 1591.5,-330 1760.5,-330 1760.5,-294 1591.5,-294"/>
<text text-anchor="middle" x="1676" y="-308.3" font-family="Times,serif" font-size="14.00">%p = alloca i32 ()*, align 8</text>
</g>
<!-- Node0x264ff20 -->
<g id="node23" class="node"><title>Node0x264ff20</title>
<polygon fill="none" stroke="black" points="1572,-204 1572,-240 1808,-240 1808,-204 1572,-204"/>
<text text-anchor="middle" x="1690" y="-218.3" font-family="Times,serif" font-size="14.00">store i32 ()* @foo, i32 ()** %p, align 8</text>
</g>
<!-- Node0x264feb0&#45;&gt;Node0x264ff20 -->
<g id="edge22" class="edge"><title>Node0x264feb0&#45;&gt;Node0x264ff20</title>
<path fill="none" stroke="black" stroke-dasharray="1,5" d="M1678.77,-293.614C1680.73,-281.24 1683.42,-264.369 1685.67,-250.22"/>
<polygon fill="black" stroke="black" points="1689.17,-250.476 1687.29,-240.05 1682.26,-249.376 1689.17,-250.476"/>
<text text-anchor="middle" x="1720" y="-263.3" font-family="Times,serif" font-size="14.00">{DEF_USE}</text>
</g>
<!-- Node0x264c370 -->
<g id="node24" class="node"><title>Node0x264c370</title>
<polygon fill="none" stroke="black" points="1206.5,-204 1206.5,-240 1445.5,-240 1445.5,-204 1206.5,-204"/>
<text text-anchor="middle" x="1326" y="-218.3" font-family="Times,serif" font-size="14.00">store i32 ()* @goo, i32 ()** %p, align 8</text>
</g>
<!-- Node0x264feb0&#45;&gt;Node0x264c370 -->
<g id="edge23" class="edge"><title>Node0x264feb0&#45;&gt;Node0x264c370</title>
<path fill="none" stroke="black" stroke-dasharray="1,5" d="M1591.33,-304.844C1522.17,-298.946 1430.43,-288.888 1396,-275 1379.76,-268.45 1363.91,-257.204 1351.4,-246.842"/>
<polygon fill="black" stroke="black" points="1353.57,-244.085 1343.7,-240.219 1349,-249.393 1353.57,-244.085"/>
<text text-anchor="middle" x="1432" y="-263.3" font-family="Times,serif" font-size="14.00">{DEF_USE}</text>
</g>
<!-- Node0x26500d0 -->
<g id="node25" class="node"><title>Node0x26500d0</title>
<polygon fill="none" stroke="black" points="1231.5,-114 1231.5,-150 1420.5,-150 1420.5,-114 1231.5,-114"/>
<text text-anchor="middle" x="1326" y="-128.3" font-family="Times,serif" font-size="14.00">%1 = load i32 ()** %p, align 8</text>
</g>
<!-- Node0x264feb0&#45;&gt;Node0x26500d0 -->
<g id="edge24" class="edge"><title>Node0x264feb0&#45;&gt;Node0x26500d0</title>
<path fill="none" stroke="black" stroke-dasharray="1,5" d="M1591.37,-295.956C1556.19,-285.787 1517.47,-268.901 1491,-241 1467.88,-216.63 1492.47,-192.02 1468,-169 1457.31,-158.946 1444.23,-151.596 1430.38,-146.24"/>
<polygon fill="black" stroke="black" points="1431.28,-142.847 1420.69,-142.843 1428.97,-149.453 1431.28,-142.847"/>
<text text-anchor="middle" x="1527" y="-218.3" font-family="Times,serif" font-size="14.00">{DEF_USE}</text>
</g>
<!-- Node0x26500a0 -->
<g id="node26" class="node"><title>Node0x26500a0</title>
<polygon fill="none" stroke="black" points="1749.5,-114 1749.5,-150 1938.5,-150 1938.5,-114 1749.5,-114"/>
<text text-anchor="middle" x="1844" y="-128.3" font-family="Times,serif" font-size="14.00">%2 = load i32 ()** %p, align 8</text>
</g>
<!-- Node0x264feb0&#45;&gt;Node0x26500a0 -->
<g id="edge25" class="edge"><title>Node0x264feb0&#45;&gt;Node0x26500a0</title>
<path fill="none" stroke="black" stroke-dasharray="1,5" d="M1739.42,-293.925C1767.37,-283.206 1798.09,-266.448 1817,-241 1834.59,-217.322 1840.8,-183.489 1842.95,-160.026"/>
<polygon fill="black" stroke="black" points="1846.44,-160.278 1843.68,-150.049 1839.46,-159.768 1846.44,-160.278"/>
<text text-anchor="middle" x="1870" y="-218.3" font-family="Times,serif" font-size="14.00">{DEF_USE}</text>
</g>
<!-- Node0x264ff20&#45;&gt;Node0x26500d0 -->
<g id="edge26" class="edge"><title>Node0x264ff20&#45;&gt;Node0x26500d0</title>
<path fill="none" stroke="black" stroke-dasharray="1,5" d="M1629.48,-203.89C1591.32,-193.322 1540.93,-179.771 1496,-169 1471.76,-163.19 1445.46,-157.38 1420.96,-152.176"/>
<polygon fill="black" stroke="black" points="1421.45,-148.703 1410.94,-150.061 1420,-155.552 1421.45,-148.703"/>
<text text-anchor="middle" x="1582.5" y="-173.3" font-family="Times,serif" font-size="14.00">{RAW} p</text>
</g>
<!-- Node0x264ff20&#45;&gt;Node0x26500a0 -->
<g id="edge27" class="edge"><title>Node0x264ff20&#45;&gt;Node0x26500a0</title>
<path fill="none" stroke="black" stroke-dasharray="1,5" d="M1715.8,-203.992C1732,-193.525 1753.46,-180.045 1773,-169 1781.48,-164.205 1790.68,-159.32 1799.55,-154.759"/>
<polygon fill="black" stroke="black" points="1801.31,-157.792 1808.64,-150.141 1798.14,-151.552 1801.31,-157.792"/>
<text text-anchor="middle" x="1801.5" y="-173.3" font-family="Times,serif" font-size="14.00">{RAW} p</text>
</g>
<!-- Node0x264c370&#45;&gt;Node0x26500d0 -->
<g id="edge28" class="edge"><title>Node0x264c370&#45;&gt;Node0x26500d0</title>
<path fill="none" stroke="black" stroke-dasharray="1,5" d="M1326,-203.614C1326,-191.24 1326,-174.369 1326,-160.22"/>
<polygon fill="black" stroke="black" points="1329.5,-160.05 1326,-150.05 1322.5,-160.05 1329.5,-160.05"/>
<text text-anchor="middle" x="1354.5" y="-173.3" font-family="Times,serif" font-size="14.00">{RAW} p</text>
</g>
<!-- Node0x264c370&#45;&gt;Node0x26500a0 -->
<g id="edge29" class="edge"><title>Node0x264c370&#45;&gt;Node0x26500a0</title>
<path fill="none" stroke="black" stroke-dasharray="1,5" d="M1354.51,-203.913C1375.88,-191.982 1406.28,-176.84 1435,-169 1490.24,-153.923 1637.21,-143.592 1739.04,-137.988"/>
<polygon fill="black" stroke="black" points="1739.26,-141.481 1749.05,-137.443 1738.88,-134.491 1739.26,-141.481"/>
<text text-anchor="middle" x="1463.5" y="-173.3" font-family="Times,serif" font-size="14.00">{RAW} p</text>
</g>
<!-- Node0x26503f0 -->
<g id="node27" class="node"><title>Node0x26503f0</title>
<polygon fill="none" stroke="black" points="454,-24 454,-60 590,-60 590,-24 454,-24"/>
<text text-anchor="middle" x="522" y="-38.3" font-family="Times,serif" font-size="14.00">%call = call i32 %1()</text>
</g>
<!-- Node0x26500d0&#45;&gt;Node0x26503f0 -->
<g id="edge30" class="edge"><title>Node0x26500d0&#45;&gt;Node0x26503f0</title>
<path fill="none" stroke="black" stroke-dasharray="1,5" d="M1231.41,-120.647C1071.02,-103.092 748.715,-67.8145 600.202,-51.5595"/>
<polygon fill="black" stroke="black" points="600.566,-48.0785 590.245,-50.4696 599.805,-55.0369 600.566,-48.0785"/>
<text text-anchor="middle" x="1033" y="-83.3" font-family="Times,serif" font-size="14.00">{DEF_USE}</text>
</g>
<!-- Node0x2650460 -->
<g id="node28" class="node"><title>Node0x2650460</title>
<polygon fill="none" stroke="black" points="1866.5,-24 1866.5,-60 2009.5,-60 2009.5,-24 1866.5,-24"/>
<text text-anchor="middle" x="1938" y="-38.3" font-family="Times,serif" font-size="14.00">%call1 = call i32 %2()</text>
</g>
<!-- Node0x26500a0&#45;&gt;Node0x2650460 -->
<g id="edge31" class="edge"><title>Node0x26500a0&#45;&gt;Node0x2650460</title>
<path fill="none" stroke="black" stroke-dasharray="1,5" d="M1860.54,-113.805C1870.6,-103.51 1883.82,-90.2771 1896,-79 1900.33,-74.987 1905.01,-70.8244 1909.61,-66.8158"/>
<polygon fill="black" stroke="black" points="1911.92,-69.4455 1917.22,-60.2685 1907.35,-64.1408 1911.92,-69.4455"/>
<text text-anchor="middle" x="1932" y="-83.3" font-family="Times,serif" font-size="14.00">{DEF_USE}</text>
</g>
<!-- Node0x26501f0&#45;&gt;Node0x264ff20 -->
<g id="edge33" class="edge"><title>Node0x26501f0&#45;&gt;Node0x264ff20</title>
<path fill="none" stroke="black" d="M1335.55,-293.88C1343.21,-281.932 1355.12,-266.784 1370,-259 1407.19,-239.545 1516.31,-245.836 1558,-241 1559.12,-240.87 1560.25,-240.739 1561.38,-240.606"/>
<polygon fill="black" stroke="black" points="1562.14,-244.039 1571.65,-239.372 1561.31,-237.089 1562.14,-244.039"/>
</g>
<!-- Node0x26501f0&#45;&gt;Node0x264c370 -->
<g id="edge35" class="edge"><title>Node0x26501f0&#45;&gt;Node0x264c370</title>
<path fill="none" stroke="black" d="M1326,-293.614C1326,-281.24 1326,-264.369 1326,-250.22"/>
<polygon fill="black" stroke="black" points="1329.5,-250.05 1326,-240.05 1322.5,-250.05 1329.5,-250.05"/>
</g>
<!-- Node0x2650260 -->
<g id="node30" class="node"><title>Node0x2650260</title>
<polygon fill="none" stroke="black" points="960.5,-204 960.5,-240 1065.5,-240 1065.5,-204 960.5,-204"/>
<text text-anchor="middle" x="1013" y="-218.3" font-family="Times,serif" font-size="14.00">br label %if.end</text>
</g>
<!-- Node0x26501f0&#45;&gt;Node0x2650260 -->
<g id="edge34" class="edge"><title>Node0x26501f0&#45;&gt;Node0x2650260</title>
<path fill="none" stroke="black" d="M1263.53,-293.945C1214.78,-280.568 1145.1,-261.298 1075.39,-241.381"/>
<polygon fill="black" stroke="black" points="1076.13,-237.953 1065.56,-238.567 1074.21,-244.683 1076.13,-237.953"/>
</g>
<!-- Node0x26502d0 -->
<g id="node31" class="node"><title>Node0x26502d0</title>
<polygon fill="none" stroke="black" points="1083.5,-204 1083.5,-240 1188.5,-240 1188.5,-204 1083.5,-204"/>
<text text-anchor="middle" x="1136" y="-218.3" font-family="Times,serif" font-size="14.00">br label %if.end</text>
</g>
<!-- Node0x26501f0&#45;&gt;Node0x26502d0 -->
<g id="edge36" class="edge"><title>Node0x26501f0&#45;&gt;Node0x26502d0</title>
<path fill="none" stroke="black" d="M1288.92,-293.824C1258.44,-279.711 1215.12,-259.645 1182.36,-244.472"/>
<polygon fill="black" stroke="black" points="1183.54,-241.16 1172.99,-240.133 1180.59,-247.512 1183.54,-241.16"/>
</g>
<!-- Node0x2651150&#45;&gt;Node0x26511c0 -->
<g id="edge42" class="edge"><title>Node0x2651150&#45;&gt;Node0x26511c0</title>
<path fill="none" stroke="black" stroke-dasharray="5,2" d="M1220.6,-884.036C1235.97,-878.659 1252.18,-871.711 1266,-863 1271.94,-859.257 1277.67,-854.431 1282.8,-849.482"/>
<polygon fill="black" stroke="black" points="1285.37,-851.859 1289.85,-842.256 1280.36,-846.973 1285.37,-851.859"/>
</g>
<!-- Node0x26511f0&#45;&gt;Node0x264fe10 -->
<g id="edge43" class="edge"><title>Node0x26511f0&#45;&gt;Node0x264fe10</title>
<path fill="none" stroke="black" stroke-dasharray="1,5" d="M1357.34,-549.837C1369.65,-539.937 1385.3,-527.346 1398.74,-516.533"/>
<polygon fill="black" stroke="black" points="1401.18,-519.065 1406.78,-510.07 1396.79,-513.61 1401.18,-519.065"/>
</g>
<!-- Node0x26513f0&#45;&gt;Node0x2650020 -->
<g id="edge47" class="edge"><title>Node0x26513f0&#45;&gt;Node0x2650020</title>
<path fill="none" stroke="black" stroke-dasharray="5,2" d="M545.049,-881.908C534.369,-876.136 522.558,-869.502 512,-863 504.4,-858.32 496.402,-853.022 488.932,-847.9"/>
<polygon fill="black" stroke="black" points="490.67,-844.846 480.461,-842.016 486.677,-850.595 490.67,-844.846"/>
</g>
<!-- Node0x2651260 -->
<g id="node36" class="node"><title>Node0x2651260</title>
<polygon fill="none" stroke="black" points="1575,-1048 1575,-1084 1701,-1084 1701,-1048 1575,-1048"/>
<text text-anchor="middle" x="1638" y="-1062.3" font-family="Times,serif" font-size="14.00">&lt;&lt;ENTRY&gt;&gt; main</text>
</g>
<!-- Node0x2651260&#45;&gt;Node0x26510c0 -->
<g id="edge64" class="edge"><title>Node0x2651260&#45;&gt;Node0x26510c0</title>
<path fill="none" stroke="black" d="M1574.94,-1058.24C1472.09,-1047.21 1264.87,-1024.98 1116.82,-1009.11"/>
<polygon fill="black" stroke="black" points="1117.03,-1005.61 1106.71,-1008.02 1116.28,-1012.57 1117.03,-1005.61"/>
</g>
<!-- Node0x2651260&#45;&gt;Node0x264fa90 -->
<g id="edge51" class="edge"><title>Node0x2651260&#45;&gt;Node0x264fa90</title>
<path fill="none" stroke="black" d="M1682.3,-1047.84C1710.02,-1037.1 1745.92,-1023.19 1775.26,-1011.82"/>
<polygon fill="black" stroke="black" points="1776.88,-1014.95 1784.94,-1008.07 1774.35,-1008.42 1776.88,-1014.95"/>
</g>
<!-- Node0x2651260&#45;&gt;Node0x264fcc0 -->
<g id="edge54" class="edge"><title>Node0x2651260&#45;&gt;Node0x264fcc0</title>
<path fill="none" stroke="black" d="M1666.23,-1047.84C1674.32,-1042.31 1682.86,-1035.83 1690,-1029 1713.37,-1006.62 1713.79,-996.267 1734,-971 1746.17,-955.788 1760.21,-939.097 1771.54,-925.83"/>
<polygon fill="black" stroke="black" points="1774.35,-927.926 1778.2,-918.056 1769.04,-923.37 1774.35,-927.926"/>
</g>
<!-- Node0x2651260&#45;&gt;Node0x264fd30 -->
<g id="edge52" class="edge"><title>Node0x2651260&#45;&gt;Node0x264fd30</title>
<path fill="none" stroke="black" d="M1614.34,-1047.84C1600.57,-1037.84 1583.01,-1025.11 1568.02,-1014.23"/>
<polygon fill="black" stroke="black" points="1569.68,-1011.11 1559.53,-1008.07 1565.57,-1016.78 1569.68,-1011.11"/>
</g>
<!-- Node0x2651260&#45;&gt;Node0x264fda0 -->
<g id="edge55" class="edge"><title>Node0x2651260&#45;&gt;Node0x264fda0</title>
<path fill="none" stroke="black" d="M1574.81,-1064.07C1532.95,-1059.75 1480.8,-1046.46 1453,-1009 1434.92,-984.631 1450.51,-950.123 1465.6,-926.722"/>
<polygon fill="black" stroke="black" points="1468.57,-928.581 1471.29,-918.341 1462.78,-924.65 1468.57,-928.581"/>
</g>
<!-- Node0x2651260&#45;&gt;Node0x264fe10 -->
<g id="edge56" class="edge"><title>Node0x2651260&#45;&gt;Node0x264fe10</title>
<path fill="none" stroke="black" d="M1574.98,-1058.7C1541.46,-1053.67 1500.23,-1044.74 1466,-1029 1452.75,-1022.91 1449.52,-1020.05 1440,-1009 1410.14,-974.331 1401.48,-963.295 1390,-919 1373.93,-857.003 1428,-844.045 1428,-780 1428,-780 1428,-780 1428,-567 1428,-551.591 1428,-534.378 1428,-520.433"/>
<polygon fill="black" stroke="black" points="1431.5,-520.047 1428,-510.047 1424.5,-520.047 1431.5,-520.047"/>
</g>
<!-- Node0x2651260&#45;&gt;Node0x2650180 -->
<g id="edge57" class="edge"><title>Node0x2651260&#45;&gt;Node0x2650180</title>
<path fill="none" stroke="black" d="M1574.86,-1064.77C1313.39,-1063.43 329,-1054.16 329,-991 329,-991 329,-991 329,-491 329,-446.359 971.613,-416.677 1225.01,-406.708"/>
<polygon fill="black" stroke="black" points="1225.47,-410.193 1235.32,-406.304 1225.19,-403.198 1225.47,-410.193"/>
</g>
<!-- Node0x2651260&#45;&gt;Node0x264feb0 -->
<g id="edge53" class="edge"><title>Node0x2651260&#45;&gt;Node0x264feb0</title>
<path fill="none" stroke="black" d="M1652.8,-1047.72C1663.47,-1033.48 1676,-1012.23 1676,-991 1676,-991 1676,-991 1676,-401 1676,-380.63 1676,-357.609 1676,-340.222"/>
<polygon fill="black" stroke="black" points="1679.5,-340.199 1676,-330.199 1672.5,-340.2 1679.5,-340.199"/>
</g>
<!-- Node0x2651260&#45;&gt;Node0x26500d0 -->
<g id="edge59" class="edge"><title>Node0x2651260&#45;&gt;Node0x26500d0</title>
<path fill="none" stroke="black" d="M1574.84,-1064.88C1308.53,-1063.95 291,-1056.14 291,-991 291,-991 291,-991 291,-221 291,-174.675 957.965,-146.017 1221.08,-136.514"/>
<polygon fill="black" stroke="black" points="1221.54,-140 1231.41,-136.143 1221.29,-133.004 1221.54,-140"/>
</g>
<!-- Node0x2651260&#45;&gt;Node0x26500a0 -->
<g id="edge61" class="edge"><title>Node0x2651260&#45;&gt;Node0x26500a0</title>
<path fill="none" stroke="black" d="M1701.03,-1062.43C1790.61,-1057.02 1944,-1040.53 1944,-991 1944,-991 1944,-991 1944,-221 1944,-191.521 1919.21,-169.581 1894.31,-154.98"/>
<polygon fill="black" stroke="black" points="1895.98,-151.906 1885.54,-150.122 1892.59,-158.03 1895.98,-151.906"/>
</g>
<!-- Node0x2651260&#45;&gt;Node0x26503f0 -->
<g id="edge60" class="edge"><title>Node0x2651260&#45;&gt;Node0x26503f0</title>
<path fill="none" stroke="black" d="M1574.89,-1064.97C1303.94,-1064.46 253,-1058.12 253,-991 253,-991 253,-991 253,-131 253,-90.5344 364.35,-65.7118 443.768,-53.1536"/>
<polygon fill="black" stroke="black" points="444.423,-56.5941 453.772,-51.6093 443.355,-49.676 444.423,-56.5941"/>
</g>
<!-- Node0x2651260&#45;&gt;Node0x2650460 -->
<g id="edge62" class="edge"><title>Node0x2651260&#45;&gt;Node0x2650460</title>
<path fill="none" stroke="black" d="M1701.09,-1064.17C1800.4,-1061.13 1982,-1047.81 1982,-991 1982,-991 1982,-991 1982,-131 1982,-107.066 1979.03,-100.242 1968,-79 1966.11,-75.3672 1963.81,-71.7718 1961.33,-68.3394"/>
<polygon fill="black" stroke="black" points="1963.86,-65.8967 1954.92,-60.2148 1958.36,-70.2331 1963.86,-65.8967"/>
</g>
<!-- Node0x2651260&#45;&gt;Node0x26501f0 -->
<g id="edge58" class="edge"><title>Node0x2651260&#45;&gt;Node0x26501f0</title>
<path fill="none" stroke="black" d="M1638,-1047.95C1638,-1032.95 1638,-1010.53 1638,-991 1638,-991 1638,-991 1638,-401 1638,-362.534 1549.05,-340.057 1466.13,-327.461"/>
<polygon fill="black" stroke="black" points="1466.46,-323.972 1456.06,-325.973 1465.44,-330.896 1466.46,-323.972"/>
</g>
<!-- Node0x2651900 -->
<g id="node37" class="node"><title>Node0x2651900</title>
<polygon fill="none" stroke="black" points="2009.5,-972 2009.5,-1008 2618.5,-1008 2618.5,-972 2009.5,-972"/>
<text text-anchor="middle" x="2314" y="-986.3" font-family="Times,serif" font-size="14.00">%call2 = call i32 (i8*, ...)* @printf(i8* getelementptr inbounds ([10 x i8]* @.str, i32 0, i32 0), i32 %call1)</text>
</g>
<!-- Node0x2651260&#45;&gt;Node0x2651900 -->
<g id="edge63" class="edge"><title>Node0x2651260&#45;&gt;Node0x2651900</title>
<path fill="none" stroke="black" d="M1701.09,-1059.02C1772.64,-1052.15 1892.77,-1040.36 1996,-1029 2051.56,-1022.89 2112.51,-1015.72 2166.06,-1009.26"/>
<polygon fill="black" stroke="black" points="2166.81,-1012.7 2176.32,-1008.02 2165.97,-1005.75 2166.81,-1012.7"/>
</g>
<!-- Node0x26519c0 -->
<g id="node38" class="node"><title>Node0x26519c0</title>
<polygon fill="none" stroke="black" points="2636,-972 2636,-1008 2698,-1008 2698,-972 2636,-972"/>
<text text-anchor="middle" x="2667" y="-986.3" font-family="Times,serif" font-size="14.00">ret i32 0</text>
</g>
<!-- Node0x2651260&#45;&gt;Node0x26519c0 -->
<g id="edge65" class="edge"><title>Node0x2651260&#45;&gt;Node0x26519c0</title>
<path fill="none" stroke="black" d="M1701.25,-1064.43C1887.29,-1062.27 2431.31,-1052.52 2626.1,-1008.6"/>
<polygon fill="black" stroke="black" points="2627.02,-1011.98 2635.94,-1006.27 2625.41,-1005.16 2627.02,-1011.98"/>
</g>
</g>
</svg>
